# xmcd CD database file
#
# Track frame offsets:
#	150
#	4502
#	18212
#	26110
#	32827
#	42597
#	53850
#
# Disc length: 807 seconds
#
# Revision: 4
# Processed by: cddbd v1.5.2PL0 Copyright (c) Steve Scherf et al.
# Submitted via: CDex 1.70beta2
#
DISCID=4f032507
DTITLE=LINK - YOU GOT THE LINK
DYEAR=1999
DGENRE=Punk
TTITLE0=RACER
TTITLE1=BLAME
TTITLE2=SENSE OF JUSTICE
TTITLE3=A MINUTE PASSED
TTITLE4=EXPERIENCE WILL TELL US
TTITLE5=TEARS FOR ME
TTITLE6=DON'T LOOK BACK
EXTD=YEAR: 1999
EXTT0=
EXTT1=
EXTT2=
EXTT3=
EXTT4=
EXTT5=
EXTT6=
PLAYORDER=
